<?xml version="1.0" encoding="utf-8"?>
<!-- Generator: Adobe Illustrator 22.1.0, SVG Export Plug-In . SVG Version: 6.00 Build 0)  -->
<svg version="1.1" id="レイヤー_1" xmlns="http://www.w3.org/2000/svg" xmlns:xlink="http://www.w3.org/1999/xlink" x="0px"
	 y="0px" width="40px" height="40px" viewBox="0 0 40 40" style="enable-background:new 0 0 40 40;" xml:space="preserve">
<metadata><?xpacket begin="﻿" id="W5M0MpCehiHzreSzNTczkc9d"?>
<x:xmpmeta xmlns:x="adobe:ns:meta/" x:xmptk="Adobe XMP Core 5.6-c143 79.161356, 2017/09/07-01:11:22        ">
   <rdf:RDF xmlns:rdf="http://www.w3.org/1999/02/22-rdf-syntax-ns#">
      <rdf:Description rdf:about=""/>
   </rdf:RDF>
</x:xmpmeta>
                                                                                                    
                                                                                                    
                                                                                                    
                                                                                                    
                                                                                                    
                                                                                                    
                                                                                                    
                                                                                                    
                                                                                                    
                                                                                                    
                                                                                                    
                                                                                                    
                                                                                                    
                                                                                                    
                                                                                                    
                                                                                                    
                                                                                                    
                                                                                                    
                                                                                                    
                                                                                                    
                           
<?xpacket end="w"?></metadata>
<style type="text/css">
	.st0{fill:#4285F4;}
	.st1{fill:#FFFFFF;}
</style>
<g>
	<path class="st0" d="M30,14V6c0,0,0-6-10-6S10,6,10,6v8c-2.6,0-3.5,0.8-3.8,1.4C6,15.7,6.2,16,6.5,16H10v18c0,6,10,6,10,6
		s10,0,10-6V16h3.5c0.3,0,0.5-0.3,0.3-0.6C33.5,14.8,32.6,14,30,14z"/>
	<g>
		<path class="st1" d="M13.3,16h13.3c0.2,0,0.4-0.1,0.4-0.3L28,10c0,0,0-2-8-2s-8,2-8,2l0.9,5.7C13,15.9,13.1,16,13.3,16z"/>
		<path class="st1" d="M18.4,22c-0.2,0-0.4,0.2-0.4,0.4v1.2c0,0.2,0.2,0.4,0.4,0.4h3.2c0.2,0,0.4-0.2,0.4-0.4v-1.2
			c0-0.2-0.2-0.4-0.4-0.4H18.4z"/>
		<path class="st1" d="M26.8,30H13.2c-0.2,0-0.3,0.1-0.4,0.2L12,32c0,0,0,2,8,2s8-2,8-2l-0.9-1.8C27,30.1,26.9,30,26.8,30z"/>
	</g>
</g>
</svg>
