<svg xmlns="http://www.w3.org/2000/svg" xmlns:xlink="http://www.w3.org/1999/xlink" viewBox="0 0 27.73 40"><defs><style>.cls-1{fill:#fbbc05;}.cls-2{fill:#fff;}</style><symbol id="新規シンボル_1" data-name="新規シンボル 1" viewBox="0 0 27.73 40"><path class="cls-1" d="M23.86,14V6s0-6-10-6-10,6-10,6v8c-2.55,0-3.47.82-3.81,1.4A.4.4,0,0,0,.4,16H3.86V34c0,6,10,6,10,6s10,0,10-6V16h3.46a.4.4,0,0,0,.35-.6C27.34,14.82,26.42,14,23.86,14Z"/><path class="cls-2" d="M7.2,16H20.52a.4.4,0,0,0,.4-.33L21.86,10s0-2-8-2-8,2-8,2l.95,5.67A.4.4,0,0,0,7.2,16Z"/><rect class="cls-2" x="11.86" y="22" width="4" height="2" rx="0.4" ry="0.4"/><path class="cls-2" d="M20.62,30H7.11a.42.42,0,0,0-.36.22L5.86,32s0,2,8,2,8-2,8-2L21,30.22A.39.39,0,0,0,20.62,30Z"/></symbol></defs><title>アセット 2</title><g id="レイヤー_2" data-name="レイヤー 2"><g id="design"><use width="27.73" height="40" xlink:href="#新規シンボル_1"/></g></g></svg>