<?xml version="1.0" encoding="utf-8"?>
<!-- Generator: Adobe Illustrator 22.0.1, SVG Export Plug-In . SVG Version: 6.00 Build 0)  -->
<svg version="1.1" id="レイヤー_1" xmlns="http://www.w3.org/2000/svg" xmlns:xlink="http://www.w3.org/1999/xlink" x="0px"
	 y="0px" width="86px" height="157px" viewBox="0 0 86 157" style="enable-background:new 0 0 86 157;" xml:space="preserve">
<metadata><?xpacket begin="﻿" id="W5M0MpCehiHzreSzNTczkc9d"?>
<x:xmpmeta xmlns:x="adobe:ns:meta/" x:xmptk="Adobe XMP Core 5.6-c143 79.161210, 2017/08/11-10:28:36        ">
   <rdf:RDF xmlns:rdf="http://www.w3.org/1999/02/22-rdf-syntax-ns#">
      <rdf:Description rdf:about=""/>
   </rdf:RDF>
</x:xmpmeta>
                                                                                                    
                                                                                                    
                                                                                                    
                                                                                                    
                                                                                                    
                                                                                                    
                                                                                                    
                                                                                                    
                                                                                                    
                                                                                                    
                                                                                                    
                                                                                                    
                                                                                                    
                                                                                                    
                                                                                                    
                                                                                                    
                                                                                                    
                                                                                                    
                                                                                                    
                                                                                                    
                           
<?xpacket end="w"?></metadata>
<style type="text/css">
	.st0{opacity:0.32;fill:url(#SVGID_1_);}
	.st1{fill:url(#SVGID_2_);}
	.st2{fill:#ECECEC;}
	.st3{fill:url(#SVGID_3_);}
	.st4{opacity:0.2;fill:url(#SVGID_4_);}
	.st5{opacity:0.2;fill:url(#SVGID_5_);}
	.st6{fill:#4496E0;}
	.st7{fill:#CAC4C4;}
	.st8{fill:#F7F1F1;}
	.st9{fill:url(#SVGID_6_);}
	.st10{fill:url(#SVGID_7_);}
	.st11{fill:url(#SVGID_8_);}
	.st12{fill:url(#SVGID_9_);}
	.st13{fill:url(#SVGID_10_);}
	.st14{fill:url(#SVGID_11_);}
	.st15{fill:url(#SVGID_12_);}
	.st16{fill:url(#SVGID_13_);}
	.st17{fill:url(#SVGID_14_);}
	.st18{fill:url(#SVGID_15_);}
	.st19{fill:url(#SVGID_16_);}
	.st20{fill:url(#SVGID_17_);}
	.st21{fill:url(#SVGID_18_);}
	.st22{fill:url(#SVGID_19_);}
	.st23{fill:url(#SVGID_20_);}
	.st24{fill:url(#SVGID_21_);}
	.st25{fill:url(#SVGID_22_);}
	.st26{fill:url(#SVGID_23_);}
	.st27{fill:url(#SVGID_24_);}
	.st28{fill:url(#SVGID_25_);}
	.st29{fill:url(#SVGID_26_);}
	.st30{fill:url(#SVGID_27_);}
	.st31{fill:#D6CCC2;}
	.st32{fill:#9497A4;}
	.st33{fill:#BDC0CD;}
</style>
<g>
	<linearGradient id="SVGID_1_" gradientUnits="userSpaceOnUse" x1="49.75" y1="124.75" x2="82.25" y2="92.25">
		<stop  offset="0" style="stop-color:#46504D"/>
		<stop  offset="1" style="stop-color:#46504D;stop-opacity:0"/>
	</linearGradient>
	<polygon class="st0" points="61,136 86,96 71,86 61,91 	"/>
	<linearGradient id="SVGID_2_" gradientUnits="userSpaceOnUse" x1="31" y1="11" x2="31" y2="151">
		<stop  offset="0" style="stop-color:#74A5C5"/>
		<stop  offset="0.9835" style="stop-color:#617A91"/>
	</linearGradient>
	<polygon class="st1" points="21,31 1,11 1,131 21,151 41,151 61,131 61,11 41,31 	"/>
	<polygon class="st2" points="1,11 21,31 41,31 61,11 51,1 11,1 	"/>
	<linearGradient id="SVGID_3_" gradientUnits="userSpaceOnUse" x1="31" y1="31" x2="31" y2="151">
		<stop  offset="0" style="stop-color:#4F748F"/>
		<stop  offset="1" style="stop-color:#283640"/>
	</linearGradient>
	<rect x="21" y="31" class="st3" width="20" height="120"/>
	<linearGradient id="SVGID_4_" gradientUnits="userSpaceOnUse" x1="31" y1="16" x2="31" y2="1">
		<stop  offset="0" style="stop-color:#333333"/>
		<stop  offset="1" style="stop-color:#CCCCCC"/>
	</linearGradient>
	<polygon class="st4" points="11,1 26,16 36,16 51,1 	"/>
	<linearGradient id="SVGID_5_" gradientUnits="userSpaceOnUse" x1="31" y1="31" x2="31" y2="16">
		<stop  offset="0" style="stop-color:#333333"/>
		<stop  offset="1" style="stop-color:#CCCCCC"/>
	</linearGradient>
	<polygon class="st5" points="26,16 21,31 41,31 36,16 	"/>
	<rect x="21" y="31" class="st6" width="5" height="120"/>
	<rect x="36" y="31" class="st6" width="5" height="120"/>
	<rect x="26" y="30" class="st7" width="10" height="2"/>
	<rect x="26" y="35" class="st7" width="10" height="2"/>
	<rect x="26" y="40" class="st7" width="10" height="2"/>
	<rect x="26" y="45" class="st7" width="10" height="2"/>
	<rect x="26" y="50" class="st7" width="10" height="2"/>
	<rect x="26" y="55" class="st7" width="10" height="2"/>
	<rect x="26" y="60" class="st7" width="10" height="2"/>
	<rect x="26" y="65" class="st7" width="10" height="2"/>
	<rect x="26" y="70" class="st7" width="10" height="2"/>
	<rect x="26" y="75" class="st7" width="10" height="2"/>
	<rect x="26" y="80" class="st7" width="10" height="2"/>
	<rect x="26" y="85" class="st7" width="10" height="2"/>
	<rect x="26" y="90" class="st7" width="10" height="2"/>
	<rect x="26" y="95" class="st7" width="10" height="2"/>
	<rect x="26" y="100" class="st7" width="10" height="2"/>
	<rect x="26" y="105" class="st7" width="10" height="2"/>
	<rect x="26" y="110" class="st7" width="10" height="2"/>
	<rect x="26" y="115" class="st7" width="10" height="2"/>
	<rect x="26" y="120" class="st7" width="10" height="2"/>
	<rect x="26" y="125" class="st7" width="10" height="2"/>
	<rect x="26" y="130" class="st7" width="10" height="2"/>
	<rect x="26" y="135" class="st7" width="10" height="2"/>
	<rect x="26" y="140" class="st7" width="10" height="2"/>
	<rect x="26" y="145" class="st7" width="10" height="2"/>
	<path class="st8" d="M26,151.5c-0.3,0-0.5-0.2-0.5-0.5V31c0-0.3,0.2-0.5,0.5-0.5s0.5,0.2,0.5,0.5v120
		C26.5,151.3,26.3,151.5,26,151.5z"/>
	<path class="st8" d="M36,151.5c-0.3,0-0.5-0.2-0.5-0.5V31c0-0.3,0.2-0.5,0.5-0.5s0.5,0.2,0.5,0.5v120
		C36.5,151.3,36.3,151.5,36,151.5z"/>
	<path class="st7" d="M41,32H21c-0.6,0-1-0.4-1-1s0.4-1,1-1h20c0.6,0,1,0.4,1,1S41.6,32,41,32z"/>
	<path class="st7" d="M41,152H21c-0.6,0-1-0.4-1-1s0.4-1,1-1h20c0.6,0,1,0.4,1,1S41.6,152,41,152z"/>
	<linearGradient id="SVGID_6_" gradientUnits="userSpaceOnUse" x1="11" y1="20.6465" x2="11" y2="41.3535">
		<stop  offset="0" style="stop-color:#5485A5"/>
		<stop  offset="0.9835" style="stop-color:#415A71"/>
	</linearGradient>
	<polygon class="st9" points="20.6,41.4 0.6,21.4 1.4,20.6 21.4,40.6 	"/>
	<linearGradient id="SVGID_7_" gradientUnits="userSpaceOnUse" x1="11" y1="30.6465" x2="11" y2="51.3535">
		<stop  offset="0" style="stop-color:#5485A5"/>
		<stop  offset="0.9835" style="stop-color:#415A71"/>
	</linearGradient>
	<polygon class="st10" points="20.6,51.4 0.6,31.4 1.4,30.6 21.4,50.6 	"/>
	<linearGradient id="SVGID_8_" gradientUnits="userSpaceOnUse" x1="11" y1="40.6465" x2="11" y2="61.3535">
		<stop  offset="0" style="stop-color:#5485A5"/>
		<stop  offset="0.9835" style="stop-color:#415A71"/>
	</linearGradient>
	<polygon class="st11" points="20.6,61.4 0.6,41.4 1.4,40.6 21.4,60.6 	"/>
	<linearGradient id="SVGID_9_" gradientUnits="userSpaceOnUse" x1="11" y1="50.6465" x2="11" y2="71.3535">
		<stop  offset="0" style="stop-color:#5485A5"/>
		<stop  offset="0.9835" style="stop-color:#415A71"/>
	</linearGradient>
	<polygon class="st12" points="20.6,71.4 0.6,51.4 1.4,50.6 21.4,70.6 	"/>
	<linearGradient id="SVGID_10_" gradientUnits="userSpaceOnUse" x1="11" y1="60.6465" x2="11" y2="81.3535">
		<stop  offset="0" style="stop-color:#5485A5"/>
		<stop  offset="0.9835" style="stop-color:#415A71"/>
	</linearGradient>
	<polygon class="st13" points="20.6,81.4 0.6,61.4 1.4,60.6 21.4,80.6 	"/>
	<linearGradient id="SVGID_11_" gradientUnits="userSpaceOnUse" x1="11" y1="70.6465" x2="11" y2="91.3535">
		<stop  offset="0" style="stop-color:#5485A5"/>
		<stop  offset="0.9835" style="stop-color:#415A71"/>
	</linearGradient>
	<polygon class="st14" points="20.6,91.4 0.6,71.4 1.4,70.6 21.4,90.6 	"/>
	<linearGradient id="SVGID_12_" gradientUnits="userSpaceOnUse" x1="11" y1="80.6465" x2="11" y2="101.3535">
		<stop  offset="0" style="stop-color:#5485A5"/>
		<stop  offset="0.9835" style="stop-color:#415A71"/>
	</linearGradient>
	<polygon class="st15" points="20.6,101.4 0.6,81.4 1.4,80.6 21.4,100.6 	"/>
	<linearGradient id="SVGID_13_" gradientUnits="userSpaceOnUse" x1="11" y1="90.6465" x2="11" y2="111.3535">
		<stop  offset="0" style="stop-color:#5485A5"/>
		<stop  offset="0.9835" style="stop-color:#415A71"/>
	</linearGradient>
	<polygon class="st16" points="20.6,111.4 0.6,91.4 1.4,90.6 21.4,110.6 	"/>
	<linearGradient id="SVGID_14_" gradientUnits="userSpaceOnUse" x1="11" y1="100.6465" x2="11" y2="121.3535">
		<stop  offset="0" style="stop-color:#5485A5"/>
		<stop  offset="0.9835" style="stop-color:#415A71"/>
	</linearGradient>
	<polygon class="st17" points="20.6,121.4 0.6,101.4 1.4,100.6 21.4,120.6 	"/>
	<linearGradient id="SVGID_15_" gradientUnits="userSpaceOnUse" x1="11" y1="110.6465" x2="11" y2="131.3535">
		<stop  offset="0" style="stop-color:#5485A5"/>
		<stop  offset="0.9835" style="stop-color:#415A71"/>
	</linearGradient>
	<polygon class="st18" points="20.6,131.4 0.6,111.4 1.4,110.6 21.4,130.6 	"/>
	<linearGradient id="SVGID_16_" gradientUnits="userSpaceOnUse" x1="11" y1="120.6465" x2="11" y2="141.3535">
		<stop  offset="0" style="stop-color:#5485A5"/>
		<stop  offset="0.9835" style="stop-color:#415A71"/>
	</linearGradient>
	<polygon class="st19" points="20.6,141.4 0.6,121.4 1.4,120.6 21.4,140.6 	"/>
	<path class="st8" d="M21,152c-0.3,0-0.5-0.1-0.7-0.3l-20-20C0.1,131.5,0,131.3,0,131V11c0-0.4,0.2-0.8,0.6-0.9
		C1,9.9,1.4,10,1.7,10.3l20,20c0.2,0.2,0.3,0.4,0.3,0.7v120c0,0.4-0.2,0.8-0.6,0.9C21.3,152,21.1,152,21,152z M2,130.6l18,18V31.4
		l-18-18V130.6z"/>
	<rect x="10.5" y="21" class="st8" width="1" height="120"/>
	<rect x="5.5" y="16" class="st8" width="1" height="120"/>
	<rect x="15.5" y="26" class="st8" width="1" height="120"/>
	
		<linearGradient id="SVGID_17_" gradientUnits="userSpaceOnUse" x1="753" y1="20.6465" x2="753" y2="41.3535" gradientTransform="matrix(-1 0 0 1 804 0)">
		<stop  offset="0" style="stop-color:#5485A5"/>
		<stop  offset="0.9835" style="stop-color:#415A71"/>
	</linearGradient>
	<polygon class="st20" points="41.4,41.4 40.6,40.6 60.6,20.6 61.4,21.4 	"/>
	
		<linearGradient id="SVGID_18_" gradientUnits="userSpaceOnUse" x1="753" y1="30.6465" x2="753" y2="51.3535" gradientTransform="matrix(-1 0 0 1 804 0)">
		<stop  offset="0" style="stop-color:#5485A5"/>
		<stop  offset="0.9835" style="stop-color:#415A71"/>
	</linearGradient>
	<polygon class="st21" points="41.4,51.4 40.6,50.6 60.6,30.6 61.4,31.4 	"/>
	
		<linearGradient id="SVGID_19_" gradientUnits="userSpaceOnUse" x1="753" y1="40.6465" x2="753" y2="61.3535" gradientTransform="matrix(-1 0 0 1 804 0)">
		<stop  offset="0" style="stop-color:#5485A5"/>
		<stop  offset="0.9835" style="stop-color:#415A71"/>
	</linearGradient>
	<polygon class="st22" points="41.4,61.4 40.6,60.6 60.6,40.6 61.4,41.4 	"/>
	
		<linearGradient id="SVGID_20_" gradientUnits="userSpaceOnUse" x1="753" y1="50.6465" x2="753" y2="71.3535" gradientTransform="matrix(-1 0 0 1 804 0)">
		<stop  offset="0" style="stop-color:#5485A5"/>
		<stop  offset="0.9835" style="stop-color:#415A71"/>
	</linearGradient>
	<polygon class="st23" points="41.4,71.4 40.6,70.6 60.6,50.6 61.4,51.4 	"/>
	
		<linearGradient id="SVGID_21_" gradientUnits="userSpaceOnUse" x1="753" y1="60.6465" x2="753" y2="81.3535" gradientTransform="matrix(-1 0 0 1 804 0)">
		<stop  offset="0" style="stop-color:#5485A5"/>
		<stop  offset="0.9835" style="stop-color:#415A71"/>
	</linearGradient>
	<polygon class="st24" points="41.4,81.4 40.6,80.6 60.6,60.6 61.4,61.4 	"/>
	
		<linearGradient id="SVGID_22_" gradientUnits="userSpaceOnUse" x1="753" y1="70.6465" x2="753" y2="91.3535" gradientTransform="matrix(-1 0 0 1 804 0)">
		<stop  offset="0" style="stop-color:#5485A5"/>
		<stop  offset="0.9835" style="stop-color:#415A71"/>
	</linearGradient>
	<polygon class="st25" points="41.4,91.4 40.6,90.6 60.6,70.6 61.4,71.4 	"/>
	
		<linearGradient id="SVGID_23_" gradientUnits="userSpaceOnUse" x1="753" y1="80.6465" x2="753" y2="101.3535" gradientTransform="matrix(-1 0 0 1 804 0)">
		<stop  offset="0" style="stop-color:#5485A5"/>
		<stop  offset="0.9835" style="stop-color:#415A71"/>
	</linearGradient>
	<polygon class="st26" points="41.4,101.4 40.6,100.6 60.6,80.6 61.4,81.4 	"/>
	
		<linearGradient id="SVGID_24_" gradientUnits="userSpaceOnUse" x1="753" y1="90.6465" x2="753" y2="111.3535" gradientTransform="matrix(-1 0 0 1 804 0)">
		<stop  offset="0" style="stop-color:#5485A5"/>
		<stop  offset="0.9835" style="stop-color:#415A71"/>
	</linearGradient>
	<polygon class="st27" points="41.4,111.4 40.6,110.6 60.6,90.6 61.4,91.4 	"/>
	
		<linearGradient id="SVGID_25_" gradientUnits="userSpaceOnUse" x1="753" y1="100.6465" x2="753" y2="121.3535" gradientTransform="matrix(-1 0 0 1 804 0)">
		<stop  offset="0" style="stop-color:#5485A5"/>
		<stop  offset="0.9835" style="stop-color:#415A71"/>
	</linearGradient>
	<polygon class="st28" points="41.4,121.4 40.6,120.6 60.6,100.6 61.4,101.4 	"/>
	
		<linearGradient id="SVGID_26_" gradientUnits="userSpaceOnUse" x1="753" y1="110.6465" x2="753" y2="131.3535" gradientTransform="matrix(-1 0 0 1 804 0)">
		<stop  offset="0" style="stop-color:#5485A5"/>
		<stop  offset="0.9835" style="stop-color:#415A71"/>
	</linearGradient>
	<polygon class="st29" points="41.4,131.4 40.6,130.6 60.6,110.6 61.4,111.4 	"/>
	
		<linearGradient id="SVGID_27_" gradientUnits="userSpaceOnUse" x1="753" y1="120.6465" x2="753" y2="141.3535" gradientTransform="matrix(-1 0 0 1 804 0)">
		<stop  offset="0" style="stop-color:#5485A5"/>
		<stop  offset="0.9835" style="stop-color:#415A71"/>
	</linearGradient>
	<polygon class="st30" points="41.4,141.4 40.6,140.6 60.6,120.6 61.4,121.4 	"/>
	<path class="st8" d="M41,152c-0.1,0-0.3,0-0.4-0.1c-0.4-0.2-0.6-0.5-0.6-0.9V31c0-0.3,0.1-0.5,0.3-0.7l20-20
		c0.3-0.3,0.7-0.4,1.1-0.2c0.4,0.2,0.6,0.5,0.6,0.9v120c0,0.3-0.1,0.5-0.3,0.7l-20,20C41.5,151.9,41.3,152,41,152z M42,31.4v117.2
		l18-18V13.4L42,31.4z"/>
	<rect x="50.5" y="21" class="st8" width="1" height="120"/>
	<rect x="55.5" y="16" class="st8" width="1" height="120"/>
	<rect x="45.5" y="26" class="st8" width="1" height="120"/>
	<path class="st8" d="M21,32c-0.3,0-0.5-0.1-0.7-0.3l-20-20c-0.4-0.4-0.4-1,0-1.4l10-10c0.4-0.4,1-0.4,1.4,0l15,15
		c0.3,0.3,0.4,0.7,0.2,1l-5,15c-0.1,0.3-0.4,0.6-0.7,0.7C21.2,32,21.1,32,21,32z M2.4,11l18.1,18.1l4.3-12.9L11,2.4L2.4,11z"/>
	<path class="st8" d="M41,32c-0.1,0-0.2,0-0.2,0c-0.3-0.1-0.6-0.3-0.7-0.7l-5-15c-0.1-0.4,0-0.8,0.2-1l15-15c0.4-0.4,1-0.4,1.4,0
		l10,10c0.4,0.4,0.4,1,0,1.4l-20,20C41.5,31.9,41.3,32,41,32z M37.1,16.3l4.3,12.9L59.6,11L51,2.4L37.1,16.3z"/>
	<path class="st31" d="M36,17H26c-0.3,0-0.5-0.1-0.7-0.3l-15-15C10,1.4,9.9,1,10.1,0.6C10.2,0.2,10.6,0,11,0h40
		c0.4,0,0.8,0.2,0.9,0.6C52.1,1,52,1.4,51.7,1.7l-15,15C36.5,16.9,36.3,17,36,17z M26.4,15h9.2l13-13H13.4L26.4,15z"/>
	<g>
		<polygon class="st32" points="1,131 1,136 21,156 41,156 61,136 61,131 41,151 21,151 		"/>
		<path class="st32" d="M41.4,157H20.6L0,136.4v-7.8L21.4,150h19.2L62,128.6v7.8L41.4,157z M21.4,155h19.2L60,135.6v-2.2L41.4,152
			H20.6L2,133.4v2.2L21.4,155z"/>
	</g>
	<polygon class="st33" points="20.6,157 21.4,150 40.6,150 41.4,157 	"/>
</g>
</svg>
